<svg width="64" height="64" viewBox="0 0 64 64" fill="none" xmlns="http://www.w3.org/2000/svg">
<path d="M25.8065 58.8387H43.0183H56.0774H60.9032C62.0439 58.8387 62.9677 57.9148 62.9677 56.7742V32C62.9677 30.8594 62.0439 29.9355 60.9032 29.9355H57.9541H25.8065V58.8387Z" fill="#FF826E"/>
<path d="M60.9032 36.129V32.7432V32H60.6906L60.1012 29.9355H57.9541H25.8065V54.7097H60.9032V36.129Z" fill="#FC6E51"/>
<path d="M56.0785 58.8387H60.9032C62.0439 58.8387 62.9678 57.9148 62.9678 56.7742V52.6452H24.7742V58.8387H43.0183H56.0785Z" fill="#E6E9ED"/>
<path d="M33.0323 19.6129H28.9032V25.8065H33.0323V19.6129Z" fill="#CCD1D9"/>
<path d="M53.6774 19.6129H49.5484V25.8065H53.6774V19.6129Z" fill="#CCD1D9"/>
<path d="M56.7742 9.29034H25.8065V19.6129H56.7742V9.29034Z" fill="#FF826E"/>
<path d="M25.8064 29.9355H13.2986C11.521 29.9355 9.94374 31.073 9.38116 32.7587L7.22581 39.2258L3.85548 40.3489C2.16981 40.9115 1.03226 42.4888 1.03226 44.2663V56.7742C1.03226 57.9148 1.95613 58.8387 3.09677 58.8387H25.8064V29.9355Z" fill="#FF826E"/>
<path d="M7.64593 52.6452H1.03226V56.7742C1.03226 57.9148 1.92 58.8387 3.01419 58.8387H26.8387V52.6452H7.96903H7.64593Z" fill="#CCD1D9"/>
<path d="M21.6774 52.6452V34.0645H14.1636C13.7197 34.0645 13.3244 34.3484 13.184 34.7706L11.4075 40.0991C11.3724 40.2044 11.3548 40.3148 11.3548 40.4253V52.6452H21.6774Z" fill="#E9573F"/>
<path d="M30.9677 5.16132C32.1079 5.16132 33.0323 4.237 33.0323 3.0968C33.0323 1.9566 32.1079 1.03229 30.9677 1.03229C29.8275 1.03229 28.9032 1.9566 28.9032 3.0968C28.9032 4.237 29.8275 5.16132 30.9677 5.16132Z" fill="#FCD770"/>
<path d="M51.6129 5.16132C52.7531 5.16132 53.6774 4.237 53.6774 3.0968C53.6774 1.9566 52.7531 1.03229 51.6129 1.03229C50.4727 1.03229 49.5484 1.9566 49.5484 3.0968C49.5484 4.237 50.4727 5.16132 51.6129 5.16132Z" fill="#FCD770"/>
<path d="M41.2903 5.16132C42.4305 5.16132 43.3548 4.237 43.3548 3.0968C43.3548 1.9566 42.4305 1.03229 41.2903 1.03229C40.1501 1.03229 39.2258 1.9566 39.2258 3.0968C39.2258 4.237 40.1501 5.16132 41.2903 5.16132Z" fill="#FCD770"/>
<path d="M58.8387 34.0645H25.8065V52.6452H58.8387V34.0645Z" fill="#AAB2BD"/>
<path d="M25.8065 38.6684C26.9037 39.6532 28.3479 40.2581 29.9355 40.2581C31.5231 40.2581 32.9672 39.6532 34.0645 38.6684C35.1618 39.6532 36.6059 40.2581 38.1936 40.2581C39.7812 40.2581 41.2253 39.6532 42.3226 38.6684C43.4199 39.6532 44.864 40.2581 46.4516 40.2581C48.0392 40.2581 49.4834 39.6532 50.5807 38.6684C51.6779 39.6532 53.1221 40.2581 54.7097 40.2581C56.2973 40.2581 57.7414 39.6532 58.8387 38.6684V34.0645H25.8065V38.6684Z" fill="#969FAA"/>
<path d="M42.3226 34.0645C42.3226 36.3448 40.4738 38.1935 38.1935 38.1935C35.9133 38.1935 34.0645 36.3448 34.0645 34.0645H42.3226Z" fill="#FCD770"/>
<path d="M34.0645 34.0645C34.0645 36.3448 32.2157 38.1935 29.9355 38.1935C27.6552 38.1935 25.8065 36.3448 25.8065 34.0645H34.0645Z" fill="#FC6E51"/>
<path d="M58.8387 34.0645C58.8387 36.3448 56.9899 38.1935 54.7097 38.1935C52.4294 38.1935 50.5807 36.3448 50.5807 34.0645H58.8387Z" fill="#FCD770"/>
<path d="M50.5806 34.0645C50.5806 36.3448 48.7319 38.1935 46.4516 38.1935C44.1713 38.1935 42.3226 36.3448 42.3226 34.0645H50.5806Z" fill="#FC6E51"/>
<path d="M58.8387 44.3871H25.8065V52.6451H58.8387V44.3871Z" fill="#CF9E76"/>
<path d="M14.4516 62.9677C18.4423 62.9677 21.6774 59.7326 21.6774 55.7419C21.6774 51.7512 18.4423 48.5161 14.4516 48.5161C10.4609 48.5161 7.2258 51.7512 7.2258 55.7419C7.2258 59.7326 10.4609 62.9677 14.4516 62.9677Z" fill="#656D78"/>
<path d="M14.4516 58.8387C16.1619 58.8387 17.5484 57.4522 17.5484 55.7419C17.5484 54.0316 16.1619 52.6452 14.4516 52.6452C12.7413 52.6452 11.3548 54.0316 11.3548 55.7419C11.3548 57.4522 12.7413 58.8387 14.4516 58.8387Z" fill="#838F9B"/>
<path d="M49.5484 62.9677C53.5391 62.9677 56.7742 59.7326 56.7742 55.7419C56.7742 51.7512 53.5391 48.5161 49.5484 48.5161C45.5577 48.5161 42.3226 51.7512 42.3226 55.7419C42.3226 59.7326 45.5577 62.9677 49.5484 62.9677Z" fill="#656D78"/>
<path d="M49.5484 58.8387C51.2587 58.8387 52.6451 57.4522 52.6451 55.7419C52.6451 54.0316 51.2587 52.6452 49.5484 52.6452C47.8381 52.6452 46.4516 54.0316 46.4516 55.7419C46.4516 57.4522 47.8381 58.8387 49.5484 58.8387Z" fill="#838F9B"/>
<path d="M14.1636 34.0645C13.7197 34.0645 13.3244 34.3484 13.184 34.7706L11.4075 40.0991C11.3899 40.1507 11.391 40.2054 11.3817 40.2581H21.6774V34.0645H14.1636Z" fill="#E6E9ED"/>
<path d="M32 16.5161C33.1402 16.5161 34.0645 15.5918 34.0645 14.4516C34.0645 13.3114 33.1402 12.3871 32 12.3871C30.8598 12.3871 29.9355 13.3114 29.9355 14.4516C29.9355 15.5918 30.8598 16.5161 32 16.5161Z" fill="#FCD770"/>
<path d="M56.7742 25.8065H27.871L25.8065 33.0323V34.0645H34.0645H50.5807H58.8387V33.0323L56.7742 25.8065Z" fill="#E6E9ED"/>
<path d="M33.0323 23.7419H28.9032V25.8065H33.0323V23.7419Z" fill="#AAB2BD"/>
<path d="M53.6774 23.7419H49.5484V25.8065H53.6774V23.7419Z" fill="#AAB2BD"/>
<path d="M33.0323 19.6129H28.9032V21.6774H33.0323V19.6129Z" fill="#AAB2BD"/>
<path d="M53.6774 19.6129H49.5484V21.6774H53.6774V19.6129Z" fill="#AAB2BD"/>
<path d="M25.8065 29.9355H23.7419V52.6452H25.8065V29.9355Z" fill="#FC6E51"/>
<path d="M58.8387 42.3226H25.8065V44.3871H58.8387V42.3226Z" fill="#969FAA"/>
<path d="M14.4516 51.6129C12.1745 51.6129 10.3226 53.4648 10.3226 55.7419C10.3226 58.0191 12.1745 59.871 14.4516 59.871C16.7288 59.871 18.5807 58.0191 18.5807 55.7419C18.5807 53.4648 16.7288 51.6129 14.4516 51.6129ZM14.4516 57.8065C13.313 57.8065 12.3871 56.8805 12.3871 55.7419C12.3871 54.6034 13.313 53.6774 14.4516 53.6774C15.5902 53.6774 16.5161 54.6034 16.5161 55.7419C16.5161 56.8805 15.5902 57.8065 14.4516 57.8065Z" fill="black"/>
<path d="M49.5484 51.6129C47.2712 51.6129 45.4193 53.4648 45.4193 55.7419C45.4193 58.0191 47.2712 59.871 49.5484 59.871C51.8255 59.871 53.6774 58.0191 53.6774 55.7419C53.6774 53.4648 51.8255 51.6129 49.5484 51.6129ZM49.5484 57.8065C48.4098 57.8065 47.4839 56.8805 47.4839 55.7419C47.4839 54.6034 48.4098 53.6774 49.5484 53.6774C50.687 53.6774 51.6129 54.6034 51.6129 55.7419C51.6129 56.8805 50.687 57.8065 49.5484 57.8065Z" fill="black"/>
<path d="M60.9032 28.9032H58.7117L57.5525 24.7742H54.7097V20.6452H57.8064V8.25806H52.6452V6.00361C53.8436 5.57626 54.7097 4.44077 54.7097 3.09677C54.7097 1.38942 53.3203 0 51.6129 0C49.9055 0 48.5161 1.38942 48.5161 3.09677C48.5161 4.44077 49.3822 5.57626 50.5806 6.00361V8.25806H42.3226V6.00361C43.521 5.57626 44.3871 4.44077 44.3871 3.09677C44.3871 1.38942 42.9977 0 41.2903 0C39.583 0 38.1935 1.38942 38.1935 3.09677C38.1935 4.44077 39.0596 5.57626 40.2581 6.00361V8.25806H32V6.00361C33.1985 5.57626 34.0645 4.44077 34.0645 3.09677C34.0645 1.38942 32.6751 0 30.9677 0C29.2604 0 27.871 1.38942 27.871 3.09677C27.871 4.44077 28.737 5.57626 29.9355 6.00361V8.25806H24.7742V20.6452H27.871V24.7742H27.0926L25.9128 28.9032H13.2986C11.0741 28.9032 9.10555 30.3215 8.40258 32.4315L6.41032 38.4093L3.52929 39.3693C1.41832 40.0733 0 42.0418 0 44.2663V56.7742C0 58.4815 1.38942 59.871 3.09677 59.871H7.31045C8.74116 62.335 11.4023 64 14.4516 64C17.5009 64 20.1621 62.335 21.5928 59.871H42.4083C43.839 62.335 46.5001 64 49.5494 64C52.5987 64 55.2599 62.335 56.6906 59.871H60.9032C62.6106 59.871 64 58.4815 64 56.7742V32C64 30.2926 62.6106 28.9032 60.9032 28.9032ZM51.6129 2.06452C52.1817 2.06452 52.6452 2.528 52.6452 3.09677C52.6452 3.66555 52.1817 4.12903 51.6129 4.12903C51.0441 4.12903 50.5806 3.66555 50.5806 3.09677C50.5806 2.528 51.0441 2.06452 51.6129 2.06452ZM41.2903 2.06452C41.8591 2.06452 42.3226 2.528 42.3226 3.09677C42.3226 3.66555 41.8591 4.12903 41.2903 4.12903C40.7215 4.12903 40.2581 3.66555 40.2581 3.09677C40.2581 2.528 40.7215 2.06452 41.2903 2.06452ZM30.9677 2.06452C31.5365 2.06452 32 2.528 32 3.09677C32 3.66555 31.5365 4.12903 30.9677 4.12903C30.399 4.12903 29.9355 3.66555 29.9355 3.09677C29.9355 2.528 30.399 2.06452 30.9677 2.06452ZM60.9032 30.9677C61.472 30.9677 61.9355 31.4312 61.9355 32V51.6129H59.871V34.0645V33.0323L59.2919 30.9677H60.9032ZM49.5484 47.4839C46.5001 47.4839 43.8379 49.1489 42.4072 51.6129H26.8387V45.4194H57.8064V51.6129H56.6895C55.2588 49.1489 52.5966 47.4839 49.5484 47.4839ZM29.9355 39.2258C31.6294 39.2258 33.1231 38.3938 34.0645 37.1293C35.0059 38.3938 36.4996 39.2258 38.1935 39.2258C39.8875 39.2258 41.3812 38.3938 42.3226 37.1293C43.264 38.3938 44.7577 39.2258 46.4516 39.2258C48.1455 39.2258 49.6392 38.3938 50.5806 37.1293C51.5221 38.3938 53.0157 39.2258 54.7097 39.2258C55.8761 39.2258 56.9414 38.8222 57.8064 38.1667V43.3548H26.8387V38.1667C27.7037 38.8222 28.769 39.2258 29.9355 39.2258ZM54.7097 37.1613C53.3657 37.1613 52.2302 36.2952 51.8028 35.0968H57.6155C57.1892 36.2952 56.0537 37.1613 54.7097 37.1613ZM46.4516 37.1613C45.1076 37.1613 43.9721 36.2952 43.5448 35.0968H49.3574C48.9311 36.2952 47.7956 37.1613 46.4516 37.1613ZM38.1935 37.1613C36.8495 37.1613 35.7141 36.2952 35.2867 35.0968H41.0994C40.673 36.2952 39.5375 37.1613 38.1935 37.1613ZM29.9355 37.1613C28.5915 37.1613 27.456 36.2952 27.0286 35.0968H32.8413C32.415 36.2952 31.2795 37.1613 29.9355 37.1613ZM52.6452 24.7742H50.5806V20.6452H52.6452V24.7742ZM48.5161 20.6452V24.7742H34.0645V20.6452H48.5161ZM26.8387 10.3226H55.7419V18.5806H26.8387V10.3226ZM29.9355 20.6452H32V24.7742H29.9355V20.6452ZM28.6493 26.8387H55.9948L57.7641 33.0323H26.88L28.6493 26.8387ZM4.18168 41.3285L8.04129 40.0413L10.3608 33.0849C10.783 31.8183 11.9639 30.9677 13.2986 30.9677H25.3234L24.8145 32.7484L24.8052 33.0323H24.7742V51.6129H22.7097V33.0323H14.1636C13.2738 33.0323 12.4862 33.599 12.2054 34.4434L10.4299 39.7719C10.3587 39.9824 10.3226 40.2023 10.3226 40.4253V48.6008C9.07458 49.3254 8.0351 50.3649 7.31045 51.6129H2.06452V44.2663C2.06452 42.9316 2.9151 41.7507 4.18168 41.3285ZM20.6452 39.2258H12.7876L14.1636 35.0968H20.6452V39.2258ZM12.3871 41.2903H20.6452V50.2978C19.1308 48.577 16.9187 47.4839 14.4516 47.4839C13.7373 47.4839 13.0488 47.584 12.3871 47.7554V41.2903ZM3.09677 57.8064C2.528 57.8064 2.06452 57.343 2.06452 56.7742V53.6774H6.46503C6.29368 54.3391 6.19355 55.0276 6.19355 55.7419C6.19355 56.4563 6.29368 57.1448 6.46503 57.8064H3.09677ZM14.4516 61.9355C11.0359 61.9355 8.25806 59.1577 8.25806 55.7419C8.25806 52.3262 11.0359 49.5484 14.4516 49.5484C17.8674 49.5484 20.6452 52.3262 20.6452 55.7419C20.6452 59.1577 17.8674 61.9355 14.4516 61.9355ZM22.4382 57.8064C22.6095 57.1448 22.7097 56.4563 22.7097 55.7419C22.7097 55.0276 22.6095 54.3391 22.4382 53.6774H41.5628C41.3905 54.3391 41.2903 55.0276 41.2903 55.7419C41.2903 56.4563 41.3905 57.1448 41.5618 57.8064H22.4382ZM49.5484 61.9355C46.1326 61.9355 43.3548 59.1577 43.3548 55.7419C43.3548 52.3262 46.1326 49.5484 49.5484 49.5484C52.9641 49.5484 55.7419 52.3262 55.7419 55.7419C55.7419 59.1577 52.9641 61.9355 49.5484 61.9355ZM60.9032 57.8064H57.535C57.7063 57.1448 57.8064 56.4563 57.8064 55.7419C57.8064 55.0276 57.7063 54.3391 57.535 53.6774H61.9355V56.7742C61.9355 57.343 61.472 57.8064 60.9032 57.8064Z" fill="black"/>
<path d="M32 11.3548C30.2926 11.3548 28.9032 12.7442 28.9032 14.4516C28.9032 16.159 30.2926 17.5484 32 17.5484C33.7074 17.5484 35.0968 16.159 35.0968 14.4516C35.0968 12.7442 33.7074 11.3548 32 11.3548ZM32 15.4839C31.4312 15.4839 30.9677 15.0204 30.9677 14.4516C30.9677 13.8828 31.4312 13.4193 32 13.4193C32.5688 13.4193 33.0323 13.8828 33.0323 14.4516C33.0323 15.0204 32.5688 15.4839 32 15.4839Z" fill="black"/>
<path d="M53.6774 13.4193H37.1613V15.4839H53.6774V13.4193Z" fill="black"/>
</svg>
