<svg width="30" height="27" viewBox="0 0 30 27" fill="none" xmlns="http://www.w3.org/2000/svg">
<path d="M8.99543 17C8.7616 17.0047 8.53352 16.9272 8.3509 16.7811C8.16827 16.6349 8.04266 16.4293 7.99593 16.2L5.65712 4.41C5.5209 3.73054 5.15377 3.11921 4.6181 2.67989C4.08243 2.24056 3.41126 2.00033 2.71862 2H0.999492C0.73441 2 0.480185 1.89464 0.292744 1.70711C0.105303 1.51957 0 1.26522 0 1C0 0.734784 0.105303 0.48043 0.292744 0.292893C0.480185 0.105357 0.73441 1.04228e-07 0.999492 1.04228e-07H2.71862C3.87068 -0.000235151 4.98745 0.397783 5.87991 1.12669C6.77238 1.8556 7.38571 2.87064 7.61613 4L9.99492 15.8C10.024 15.9315 10.0261 16.0676 10.0013 16.1999C9.97653 16.3323 9.92525 16.4583 9.85058 16.5704C9.77591 16.6825 9.67937 16.7783 9.56677 16.8521C9.45418 16.9259 9.32783 16.9762 9.19532 17H8.99543Z" fill="#222222"/>
<path d="M9.99492 24H8.13586C7.0758 23.9934 6.05868 23.5801 5.29433 22.8451C4.52997 22.1102 4.07668 21.1098 4.02797 20.0503C3.97925 18.9908 4.33882 17.953 5.0325 17.151C5.72618 16.349 6.70107 15.8439 7.75605 15.74L26.1567 14.07L27.7659 6H6.99644C6.73136 6 6.47713 5.89464 6.28969 5.70711C6.10225 5.51957 5.99695 5.26522 5.99695 5C5.99695 4.73478 6.10225 4.48043 6.28969 4.29289C6.47713 4.10536 6.73136 4 6.99644 4H28.9853C29.1329 4.00098 29.2785 4.03466 29.4115 4.09864C29.5446 4.16261 29.6619 4.25529 29.7549 4.37C29.8526 4.48247 29.9239 4.61537 29.9637 4.75897C30.0035 4.90257 30.0107 5.05326 29.9848 5.2L27.9858 15.2C27.9435 15.4115 27.8341 15.6036 27.6738 15.7478C27.5135 15.892 27.3109 15.9805 27.0962 16L7.93596 17.74C7.37134 17.7665 6.84037 18.0164 6.45986 18.4346C6.07936 18.8528 5.88049 19.4051 5.90699 19.97C5.9335 20.5349 6.18322 21.0661 6.60121 21.4468C7.01921 21.8275 7.57124 22.0265 8.13586 22H9.99492C10.26 22 10.5142 22.1054 10.7017 22.2929C10.8891 22.4804 10.9944 22.7348 10.9944 23C10.9944 23.2652 10.8891 23.5196 10.7017 23.7071C10.5142 23.8946 10.26 24 9.99492 24Z" fill="#222222"/>
<path d="M24.9873 27C24.1966 27 23.4236 26.7654 22.7661 26.3259C22.1087 25.8864 21.5963 25.2616 21.2937 24.5307C20.9911 23.7998 20.9119 22.9956 21.0661 22.2196C21.2204 21.4437 21.6012 20.731 22.1603 20.1716C22.7194 19.6122 23.4318 19.2312 24.2073 19.0769C24.9829 18.9225 25.7867 19.0017 26.5173 19.3045C27.2478 19.6072 27.8722 20.1199 28.3115 20.7777C28.7508 21.4355 28.9853 22.2089 28.9853 23C28.9853 24.0609 28.5641 25.0783 27.8143 25.8284C27.0645 26.5786 26.0476 27 24.9873 27ZM24.9873 21C24.5919 21 24.2055 21.1173 23.8767 21.3371C23.548 21.5568 23.2918 21.8692 23.1405 22.2346C22.9892 22.6001 22.9496 23.0022 23.0267 23.3902C23.1039 23.7781 23.2942 24.1345 23.5738 24.4142C23.8534 24.6939 24.2095 24.8844 24.5973 24.9616C24.9851 25.0387 25.387 24.9991 25.7523 24.8478C26.1175 24.6964 26.4297 24.44 26.6494 24.1111C26.869 23.7822 26.9863 23.3956 26.9863 23C26.9863 22.4696 26.7757 21.9609 26.4008 21.5858C26.0259 21.2107 25.5175 21 24.9873 21Z" fill="#222222"/>
<path d="M12.9934 27C12.2027 27 11.4297 26.7654 10.7722 26.3259C10.1148 25.8864 9.60235 25.2616 9.29975 24.5307C8.99715 23.7998 8.91798 22.9956 9.07224 22.2196C9.22651 21.4437 9.60728 20.731 10.1664 20.1716C10.7255 19.6122 11.4379 19.2312 12.2134 19.0769C12.989 18.9225 13.7928 19.0017 14.5233 19.3045C15.2539 19.6072 15.8783 20.1199 16.3176 20.7777C16.7569 21.4355 16.9914 22.2089 16.9914 23C16.9914 24.0609 16.5701 25.0783 15.8204 25.8284C15.0706 26.5786 14.0537 27 12.9934 27ZM12.9934 21C12.598 21 12.2115 21.1173 11.8828 21.3371C11.5541 21.5568 11.2979 21.8692 11.1466 22.2346C10.9953 22.6001 10.9557 23.0022 11.0328 23.3902C11.1099 23.7781 11.3003 24.1345 11.5799 24.4142C11.8595 24.6939 12.2156 24.8844 12.6034 24.9616C12.9912 25.0387 13.3931 24.9991 13.7584 24.8478C14.1236 24.6964 14.4358 24.44 14.6555 24.1111C14.8751 23.7822 14.9924 23.3956 14.9924 23C14.9924 22.4696 14.7818 21.9609 14.4069 21.5858C14.032 21.2107 13.5236 21 12.9934 21Z" fill="#222222"/>
<path d="M21.9888 24H15.9919C15.7268 24 15.4726 23.8947 15.2851 23.7071C15.0977 23.5196 14.9924 23.2652 14.9924 23C14.9924 22.7348 15.0977 22.4804 15.2851 22.2929C15.4726 22.1054 15.7268 22 15.9919 22H21.9888C22.2539 22 22.5081 22.1054 22.6956 22.2929C22.883 22.4804 22.9883 22.7348 22.9883 23C22.9883 23.2652 22.883 23.5196 22.6956 23.7071C22.5081 23.8947 22.2539 24 21.9888 24Z" fill="#222222"/>
<path d="M17 7V13" stroke="black" stroke-width="1.5" stroke-linecap="round"/>
<path d="M14 10H20" stroke="black" stroke-width="1.5" stroke-linecap="round"/>
</svg>
