<svg width="31" height="27" viewBox="0 0 31 27" fill="none" xmlns="http://www.w3.org/2000/svg">
<path d="M9 17C8.76605 17.0047 8.53786 16.9272 8.35514 16.7811C8.17242 16.6349 8.04675 16.4293 8 16.2L5.66 4.41C5.52371 3.73054 5.15639 3.11921 4.62045 2.67989C4.08451 2.24056 3.413 2.00033 2.72 2H1C0.734784 2 0.48043 1.89464 0.292893 1.70711C0.105357 1.51957 0 1.26522 0 1C0 0.734784 0.105357 0.48043 0.292893 0.292893C0.48043 0.105357 0.734784 1.04228e-07 1 1.04228e-07H2.72C3.87265 -0.000235151 4.98999 0.397783 5.8829 1.12669C6.77582 1.8556 7.38947 2.87064 7.62 4L10 15.8C10.0291 15.9315 10.0312 16.0676 10.0064 16.1999C9.9816 16.3323 9.9303 16.4583 9.85559 16.5704C9.78088 16.6825 9.68429 16.7783 9.57164 16.8521C9.45898 16.9259 9.33258 16.9762 9.2 17H9Z" fill="#101820"/>
<path d="M10 24H8.14C7.07939 23.9934 6.06176 23.5801 5.29702 22.8451C4.53227 22.1102 4.07876 21.1098 4.03001 20.0503C3.98127 18.9908 4.34102 17.953 5.03506 17.151C5.72909 16.349 6.70447 15.8439 7.76 15.74L26.17 14.07L27.78 6H7C6.73478 6 6.48043 5.89464 6.29289 5.70711C6.10535 5.51957 6 5.26522 6 5C6 4.73478 6.10535 4.48043 6.29289 4.29289C6.48043 4.10536 6.73478 4 7 4H29C29.1477 4.00098 29.2934 4.03466 29.4265 4.09864C29.5596 4.16261 29.6769 4.25529 29.77 4.37C29.8678 4.48247 29.9391 4.61537 29.9789 4.75897C30.0187 4.90257 30.0259 5.05326 30 5.2L28 15.2C27.9578 15.4115 27.8483 15.6037 27.6879 15.7478C27.5275 15.892 27.3248 15.9805 27.11 16L7.94 17.74C7.37508 17.7665 6.84385 18.0164 6.46315 18.4346C6.08245 18.8528 5.88347 19.4051 5.91 19.97C5.93652 20.5349 6.18636 21.0661 6.60457 21.4468C7.02278 21.8275 7.57509 22.0265 8.14 22H10C10.2652 22 10.5196 22.1054 10.7071 22.2929C10.8946 22.4804 11 22.7348 11 23C11 23.2652 10.8946 23.5196 10.7071 23.7071C10.5196 23.8946 10.2652 24 10 24Z" fill="#101820"/>
<path d="M25 27C24.2089 27 23.4355 26.7654 22.7777 26.3259C22.1199 25.8864 21.6072 25.2616 21.3045 24.5307C21.0017 23.7998 20.9225 22.9956 21.0769 22.2196C21.2312 21.4437 21.6122 20.731 22.1716 20.1716C22.731 19.6122 23.4437 19.2312 24.2196 19.0769C24.9956 18.9225 25.7998 19.0017 26.5307 19.3045C27.2616 19.6072 27.8864 20.1199 28.3259 20.7777C28.7654 21.4355 29 22.2089 29 23C29 24.0609 28.5786 25.0783 27.8284 25.8284C27.0783 26.5786 26.0609 27 25 27ZM25 21C24.6044 21 24.2178 21.1173 23.8889 21.3371C23.56 21.5568 23.3036 21.8692 23.1522 22.2346C23.0009 22.6001 22.9613 23.0022 23.0384 23.3902C23.1156 23.7781 23.3061 24.1345 23.5858 24.4142C23.8655 24.6939 24.2219 24.8844 24.6098 24.9616C24.9978 25.0387 25.3999 24.9991 25.7654 24.8478C26.1308 24.6964 26.4432 24.44 26.6629 24.1111C26.8827 23.7822 27 23.3956 27 23C27 22.4696 26.7893 21.9609 26.4142 21.5858C26.0391 21.2107 25.5304 21 25 21Z" fill="#101820"/>
<path d="M13 27C12.2089 27 11.4355 26.7654 10.7777 26.3259C10.1199 25.8864 9.60723 25.2616 9.30448 24.5307C9.00173 23.7998 8.92252 22.9956 9.07686 22.2196C9.2312 21.4437 9.61216 20.731 10.1716 20.1716C10.731 19.6122 11.4437 19.2312 12.2196 19.0769C12.9956 18.9225 13.7998 19.0017 14.5307 19.3045C15.2616 19.6072 15.8864 20.1199 16.3259 20.7777C16.7654 21.4355 17 22.2089 17 23C17 24.0609 16.5786 25.0783 15.8284 25.8284C15.0783 26.5786 14.0609 27 13 27ZM13 21C12.6044 21 12.2178 21.1173 11.8889 21.3371C11.56 21.5568 11.3036 21.8692 11.1522 22.2346C11.0009 22.6001 10.9613 23.0022 11.0384 23.3902C11.1156 23.7781 11.3061 24.1345 11.5858 24.4142C11.8655 24.6939 12.2219 24.8844 12.6098 24.9616C12.9978 25.0387 13.3999 24.9991 13.7654 24.8478C14.1308 24.6964 14.4432 24.44 14.6629 24.1111C14.8827 23.7822 15 23.3956 15 23C15 22.4696 14.7893 21.9609 14.4142 21.5858C14.0391 21.2107 13.5304 21 13 21Z" fill="#101820"/>
<path d="M22 24H16C15.7348 24 15.4804 23.8946 15.2929 23.7071C15.1054 23.5196 15 23.2652 15 23C15 22.7348 15.1054 22.4804 15.2929 22.2929C15.4804 22.1054 15.7348 22 16 22H22C22.2652 22 22.5196 22.1054 22.7071 22.2929C22.8946 22.4804 23 22.7348 23 23C23 23.2652 22.8946 23.5196 22.7071 23.7071C22.5196 23.8946 22.2652 24 22 24Z" fill="#101820"/>
</svg>
