<svg width="16" height="20" viewBox="0 0 16 20" fill="none" xmlns="http://www.w3.org/2000/svg">
<path d="M12.9231 20H3.07693C2.5873 20 2.11772 19.7893 1.7715 19.4142C1.42528 19.0391 1.23077 18.5304 1.23077 18V5.33334C1.23077 5.15653 1.29561 4.98696 1.41102 4.86193C1.52642 4.73691 1.68295 4.66667 1.84616 4.66667C2.00937 4.66667 2.16589 4.73691 2.2813 4.86193C2.39671 4.98696 2.46154 5.15653 2.46154 5.33334V18C2.46154 18.1768 2.52638 18.3464 2.64179 18.4714C2.75719 18.5964 2.91372 18.6667 3.07693 18.6667H12.9231C13.0863 18.6667 13.2428 18.5964 13.3582 18.4714C13.4736 18.3464 13.5385 18.1768 13.5385 18V5.33334C13.5385 5.15653 13.6033 4.98696 13.7187 4.86193C13.8341 4.73691 13.9906 4.66667 14.1539 4.66667C14.3171 4.66667 14.4736 4.73691 14.589 4.86193C14.7044 4.98696 14.7692 5.15653 14.7692 5.33334V18C14.7692 18.5304 14.5747 19.0391 14.2285 19.4142C13.8823 19.7893 13.4127 20 12.9231 20Z" fill="#101820"/>
<path d="M15.3846 4.00001H0.615385C0.452174 4.00001 0.295649 3.92977 0.180242 3.80474C0.064835 3.67972 0 3.51015 0 3.33334C0 3.15653 0.064835 2.98696 0.180242 2.86193C0.295649 2.73691 0.452174 2.66667 0.615385 2.66667H15.3846C15.5478 2.66667 15.7044 2.73691 15.8198 2.86193C15.9352 2.98696 16 3.15653 16 3.33334C16 3.51015 15.9352 3.67972 15.8198 3.80474C15.7044 3.92977 15.5478 4.00001 15.3846 4.00001Z" fill="#101820"/>
<path d="M10.4616 4C10.2983 4 10.1418 3.92976 10.0264 3.80474C9.91101 3.67971 9.84617 3.51014 9.84617 3.33333V1.33333H6.15386V3.33333C6.15386 3.51014 6.08903 3.67971 5.97362 3.80474C5.85822 3.92976 5.70169 4 5.53848 4C5.37527 4 5.21874 3.92976 5.10334 3.80474C4.98793 3.67971 4.9231 3.51014 4.9231 3.33333V0.666667C4.9231 0.489856 4.98793 0.320286 5.10334 0.195262C5.21874 0.0702379 5.37527 0 5.53848 0H10.4616C10.6248 0 10.7813 0.0702379 10.8967 0.195262C11.0121 0.320286 11.0769 0.489856 11.0769 0.666667V3.33333C11.0769 3.51014 11.0121 3.67971 10.8967 3.80474C10.7813 3.92976 10.6248 4 10.4616 4Z" fill="#101820"/>
<path d="M8.00003 16.6667C7.83682 16.6667 7.68029 16.5964 7.56489 16.4714C7.44948 16.3464 7.38464 16.1768 7.38464 16V6.66667C7.38464 6.48986 7.44948 6.32029 7.56489 6.19526C7.68029 6.07024 7.83682 6 8.00003 6C8.16324 6 8.31976 6.07024 8.43517 6.19526C8.55058 6.32029 8.61541 6.48986 8.61541 6.66667V16C8.61541 16.1768 8.55058 16.3464 8.43517 16.4714C8.31976 16.5964 8.16324 16.6667 8.00003 16.6667Z" fill="#101820"/>
<path d="M11.0769 15.3333C10.9137 15.3333 10.7572 15.2631 10.6418 15.1381C10.5264 15.0131 10.4615 14.8435 10.4615 14.6667V8C10.4615 7.82319 10.5264 7.65362 10.6418 7.5286C10.7572 7.40357 10.9137 7.33334 11.0769 7.33334C11.2401 7.33334 11.3967 7.40357 11.5121 7.5286C11.6275 7.65362 11.6923 7.82319 11.6923 8V14.6667C11.6923 14.8435 11.6275 15.0131 11.5121 15.1381C11.3967 15.2631 11.2401 15.3333 11.0769 15.3333Z" fill="#101820"/>
<path d="M4.92306 15.3333C4.75985 15.3333 4.60333 15.2631 4.48792 15.1381C4.37251 15.0131 4.30768 14.8435 4.30768 14.6667V8C4.30768 7.82319 4.37251 7.65362 4.48792 7.5286C4.60333 7.40357 4.75985 7.33334 4.92306 7.33334C5.08627 7.33334 5.2428 7.40357 5.35821 7.5286C5.47361 7.65362 5.53845 7.82319 5.53845 8V14.6667C5.53845 14.8435 5.47361 15.0131 5.35821 15.1381C5.2428 15.2631 5.08627 15.3333 4.92306 15.3333Z" fill="#101820"/>
</svg>
